<svg width="584" height="802" viewBox="0 0 584 802" fill="none" xmlns="http://www.w3.org/2000/svg">
<path d="M77.2348 801.386L216.847 682.907C208.784 680.767 200.858 678.29 193.085 675.492L77.3204 801.281L77.2348 801.386Z" fill="#613BFC"/>
<path d="M321.813 691.153C469.039 676.201 583.928 551.864 583.928 400.693C583.928 296.228 529.064 204.577 446.578 152.982L325.484 391.484L496.666 345.625L193.085 675.492C200.858 678.29 208.784 680.767 216.847 682.907L338.615 579.571L265.64 691.49C265.648 691.49 265.657 691.491 265.665 691.491C274.327 692.265 283.098 692.66 291.961 692.66C292.59 692.66 293.22 692.658 293.849 692.654C303.283 692.594 312.611 692.087 321.813 691.153Z" fill="#613BFC"/>
<path d="M300.794 108.857C297.863 108.77 294.92 108.726 291.967 108.726C130.718 108.726 0 239.444 0 400.693C0 505.158 54.8638 596.81 137.35 648.405L258.444 409.902L87.261 455.761L390.842 125.894C383.069 123.096 375.143 120.62 367.08 118.479L245.313 221.815L318.287 109.897C312.503 109.38 306.671 109.032 300.794 108.857Z" fill="#613BFC"/>
<path d="M367.08 118.479C375.143 120.62 383.069 123.096 390.842 125.894L506.608 0.104858L506.693 0L367.08 118.479Z" fill="#613BFC"/>
<path fill-rule="evenodd" clip-rule="evenodd" d="M446.578 152.982L446.58 152.979C432.256 144.02 417.099 136.268 401.252 129.867L401.251 129.869C417.098 136.271 432.254 144.022 446.578 152.982ZM318.288 109.897L318.287 109.897C332.719 111.187 346.848 113.527 360.598 116.84L360.599 116.838C346.849 113.526 332.719 111.186 318.288 109.897ZM182.677 671.517L182.675 671.519C166.828 665.118 151.672 657.367 137.348 648.408L137.35 648.405C151.673 657.364 166.83 665.116 182.677 671.517Z" fill="#613BFC"/>
</svg>
